<svg xmlns="http://www.w3.org/2000/svg" width="70" height="19" fill="none"><g clip-path="url(#a)"><path fill="#F2F2F2" fill-rule="evenodd" d="M18.515 9.5c0 5.247-4.152 9.5-9.273 9.5C4.382 19 .396 15.172 0 10.299h12.258V8.7H0C.396 3.828 4.382 0 9.242 0c5.121 0 9.273 4.253 9.273 9.5zm34.382 7.779c3.213 0 5.32-1.777 5.32-4.454 0-2.484-1.585-3.662-3.985-4.068l-2.128-.364c-1.628-.279-2.713-1.007-2.713-2.613 0-1.627 1.21-2.869 3.506-2.869 2.233 0 3.38 1.156 3.505 2.805h1.607c-.125-2.184-1.753-4.133-5.091-4.133-3.297 0-5.112 1.906-5.112 4.261 0 2.506 1.648 3.662 3.902 4.047l2.149.343c1.794.321 2.796 1.07 2.796 2.655 0 1.863-1.482 3.062-3.735 3.062-2.337 0-3.798-1.156-3.923-3.126h-1.586c.125 2.57 2.045 4.454 5.488 4.454zm-23.69-.3h-5.843V1.905h5.634c2.484 0 4.216 1.498 4.216 3.897 0 1.734-.96 2.89-2.504 3.276v.064c1.836.364 2.962 1.649 2.962 3.662 0 2.59-1.856 4.175-4.465 4.175zm-.417-8.458c1.774 0 2.859-.985 2.859-2.527V5.78c0-1.541-1.085-2.505-2.86-2.505h-3.86v5.246h3.86zm.188 7.088c1.94 0 3.13-1.092 3.13-2.763v-.214c0-1.734-1.21-2.783-3.151-2.783H24.93v5.76h4.048zm17.332 1.37h-1.669l-1.252-4.09h-5.843l-1.252 4.09H34.71l4.82-15.074h1.898l4.883 15.074zM40.551 3.553h-.125l-2.462 7.987h5.029L40.55 3.553zM60.568 16.98V1.905H70v1.391h-7.867v5.182h7.241v1.37h-7.24v5.74H70v1.391h-9.432z" clip-rule="evenodd"/></g><defs><clipPath id="a"><path fill="#fff" d="M0 0h69.785v18.9H0z"/></clipPath></defs></svg>