<svg xmlns="http://www.w3.org/2000/svg" width="90" height="21" fill="none"><path fill="#fff" d="M4.896.6c.192 0 .384.072.552.144.216.072.456.168.624.312.48.384.432 1.08.48 1.656v.192c0 .12 0 .24.072.36.216.384.768.336 1.128.48.648.216 1.56.672 1.92 1.296.12.192.168.408.168.6 0 .672-.624 1.272-1.344 1.272h-.024c-.432-.024-.72-.384-1.128-.528-.192-.072-.408-.048-.624-.096-.24-.048-.48-.192-.72-.192h-.072c-.24 0-.48.12-.72.168-.312.072-.648.072-.96.192-.384.144-.936.552-.936 1.032v.024c.024.216.168.408.264.576.288.432.576.816 1.08 1.032.384.168.816.24 1.2.408.96.48 2.088.816 2.928 1.536.624.576 1.224 1.464 1.344 2.304 0 .096.024.192.024.312 0 .792-.288 1.656-.696 2.28-.48.696-1.296 1.152-1.944 1.632-.168.144-.384.24-.528.384-.24.288-.144.672-.192 1.032-.096.672-.6 1.44-1.344 1.464h-.024c-.624 0-1.2-.792-1.344-1.32-.096-.264-.024-.624-.24-.84-.216-.168-.552-.096-.768-.192-.576-.192-1.128-.504-1.68-.744-.312-.144-.408-.408-.552-.72-.12-.24-.288-.504-.288-.792v-.048c0-.456.408-.936.84-1.032.12-.024.24-.048.36-.048.6 0 1.032.432 1.632.624.216.072.48.144.744.144.072 0 .144-.024.216-.024.192-.024.36-.12.552-.168.528-.096.936-.024 1.44-.36.312-.192.936-.624.936-1.08v-.048c-.048-.336-.384-.528-.624-.672a9.57 9.57 0 0 0-1.92-.96c-.744-.312-1.392-.696-2.064-1.152-.264-.168-.552-.336-.768-.552-.792-.792-1.32-1.92-1.32-3.048 0-.144 0-.264.024-.408.048-.528.024-.984.36-1.44.408-.552 1.2-1.032 1.8-1.368.336-.192.888-.36 1.152-.672a.551.551 0 0 0 .096-.336c0-.168-.024-.36-.048-.504a5.52 5.52 0 0 1-.048-.672c0-.696.192-1.44.984-1.44zm16.053 2.568h.096c1.008 0 3.288.384 3.288 1.44 0 .696-.6 1.488-1.224 1.56-.552 0-1.128-.192-1.656-.192h-.696c-.552 0-1.128.024-1.632.168-.48.168-1.128.552-1.512.816-1.248.96-1.68 2.184-1.68 3.888 0 .984.12 1.68.456 2.376.672 1.464 1.896 2.328 3.456 2.328.36 0 .96-.168 1.416-.48.432-.24.648-.408 1.272-.408.72 0 1.536.384 1.536 1.056 0 1.44-2.88 2.688-4.464 2.688h-.84c-.24 0-.696-.12-.912-.12-1.296-.144-2.568-1.104-3.576-2.4-1.08-1.368-1.632-3.096-1.632-4.944 0-.696.096-2.184.384-2.76.72-1.464 1.344-2.568 2.208-3.36.72-.672 1.848-1.128 3.096-1.416.84-.192 1.752-.12 2.616-.24zm8.548-.048h.096c.192 0 .384.048.6.048.048 0 .12-.024.168-.024h.264c.384 0 .768.024 1.128.048.552.048 1.224.12 1.752.264.264.072.552.12.792.216 1.32.48 2.448 1.608 2.448 3.096v.216c-.048.432-.144 1.056-.312 1.44-.192.408-.288.768-.552 1.104-.24.336-1.296 1.056-1.296 1.488v.024c.048.6.744 1.272 1.056 1.776.24.456.168.288.456.72.144.216.36.528.528.744.288.432.576.912.768 1.368.168.408.312.768.312 1.08 0 .336-.144.624-.6.912-.24.144-.6.216-.96.216-.336 0-.672-.072-.912-.216-.24-.144-.576-.72-.672-.96l-.6-1.104c-.456-.816-.744-1.224-1.176-2.04-.24-.432-.552-1.152-1.104-1.296-.216-.072-.312-.072-.456-.072h-.264c-.576 0-.6.552-.6 1.032v.192c-.048.36-.096 1.032-.096 1.488v.264c0 .216-.024.504-.048.72v.864c0 .312-.048.648-.072.96-.024.6-.48 1.272-1.104 1.32h-.048c-.264 0-.672-.168-.912-.288-.552-.288-.648-.888-.648-1.488 0-.264.024-.504.024-.744v-.216c0-.288-.024-.576-.024-.864v-1.032c0-.072.024-.192.024-.336 0-.432-.048-1.032-.048-1.272v-1.44c0-.144 0-.312-.024-.48-.048-.528-.048-1.296-.048-1.824 0-.36-.024-1.464-.048-1.824v-.84c0-.12 0-.264-.024-.432v-.072c0-.192.072-.432.072-.528v-.504c0-.408.024-.768.432-1.128.408-.384 1.224-.504 1.728-.576zm1.032 2.736c-.312.072-.48.264-.48.456 0 .024.024.072.024.096.072.216.096.552.096.936 0 .552-.048 1.176-.048 1.56v.144c.024.24.048.6.216.744.096.048.264.072.408.072.24 0 .504-.048.672-.072.24-.024.432-.072.672-.216.336-.264.624-.312.936-.648.192-.192.36-.432.504-.672.096-.12.12-.36.12-.6 0-.288-.048-.6-.12-.768-.144-.336-.504-.744-.84-.864-.504-.216-.864-.288-1.224-.288-.288 0-.576.048-.936.12zm15.847-2.352c.12-.024.24-.024.36-.024.48 0 .864.168 1.176.624.192.312.24.648.384.984.12.264.264.504.384.792.072.192.072.432.144.624.408 1.368.792 2.76 1.176 4.104.192.552.504 1.08.696 1.608.336 1.008.648 1.992 1.056 2.976.168.384.312.912.312 1.44 0 .672-.264 1.32-1.032 1.488-.096.024-.168.024-.264.024-.12 0-.216 0-.336-.024-.216-.024-.48-.048-.672-.168-.552-.36-.696-1.008-.912-1.56-.096-.384-.24-.744-.36-1.128-.096-.312-.168-.696-.384-.96-.264-.288-.696-.36-1.128-.36-.264 0-.528.024-.744.024h-.192a9.364 9.364 0 0 0-.864-.048c-.528 0-1.032.096-1.344.48-.192.192-.24.456-.312.696-.288.816-.36 1.8-.864 2.496-.24.312-.6.648-1.008.648-.072 0-.168-.024-.264-.048-.192-.072-.336-.192-.528-.264-.144-.096-.384-.096-.504-.24-.168-.12-.216-.312-.216-.48 0-.264.12-.528.168-.744.144-.48.384-.936.528-1.44.192-.528.312-1.008.576-1.536.216-.456.216-1.008.408-1.512.12-.408.336-.816.456-1.2.144-.456.12-.936.264-1.368.168-.6.528-1.176.768-1.776.192-.576.312-1.128.576-1.68.192-.408.384-.84.48-1.272.096-.312.144-.648.408-.864.384-.288 1.128-.24 1.608-.312zM46.04 7.56h-.024c-.192 0-.336.504-.408.696-.312.672-.552 1.728-.744 2.448-.024.12-.096.336-.096.504 0 .12.024.216.144.264.24.096.48.12.744.12.216 0 .456-.024.672-.024h.144c.12 0 .264.048.384.048.096 0 .144-.024.192-.096.048-.048.048-.144.048-.24 0-.168-.048-.36-.072-.48-.144-.672-.312-1.92-.576-2.544-.048-.192-.216-.648-.408-.696zm11.203-4.248c.408-.024.84-.072 1.272-.072.144 0 .264.024.408.024.216 0 .528 0 .744.024.384.024.672.024 1.08.048.696.048 1.464.36 2.04.744.768.504 1.224 1.032 1.464 1.872.096.312.192.816.216 1.128.024.192.072.312.072.48 0 .048-.024.12-.024.168 0 .24-.096.552-.144.792-.216 1.032-.792 2.304-1.464 3.072-.24.288-.576.48-.888.696-.672.432-.96.456-1.752.672-.312.072-.72.12-1.032.12a1.205 1.205 0 0 0-.288-.048.308.308 0 0 0-.24.096c-.12.072-.144.264-.144.456v.312c0 .072-.024.168-.024.216-.024.144-.024.288-.024.456 0 .408.048.864.048 1.296 0 .576-.072 1.128-.408 1.608-.216.336-.456.624-.912.624-.264 0-.48-.096-.696-.216-.48-.288-.888-.744-1.008-1.296-.024-.072-.024-.12-.024-.192 0-.12.024-.24.024-.36-.024-.576-.024-1.176-.096-1.752-.048-.408-.072-.84-.072-1.272 0-.624.048-1.224.072-1.848V9.072c0-.24.024-.456.024-.72 0-.696-.024-1.44-.024-2.16 0-.504-.408-.72-.6-1.2a1.495 1.495 0 0 1-.072-.504c0-.216.024-.432.12-.576.264-.432.792-.384 1.248-.456.36-.048.744-.144 1.104-.144zm1.344 2.76c-.216.072-.264.36-.264.648 0 .192.024.408.024.552 0 .672.072 1.368.072 2.04.024.24-.024.648.192.84a.57.57 0 0 0 .288.072c.216 0 .432-.072.552-.12 1.008-.384 1.992-1.224 1.992-2.448 0-.096-.024-.192-.024-.288-.072-.6-.648-1.104-1.2-1.2a7.506 7.506 0 0 1-.72-.12A3.267 3.267 0 0 0 58.995 6c-.144 0-.288.024-.408.072zm9.975-2.448c.288-.12.624-.144.936-.144h.6c.456 0 .768-.048 1.128-.048.12 0 .24.024.384.024.408.048.696.12 1.128.144.408.024.792.144 1.176.216.36.048.96.36 1.272.528.96.528 1.464 1.536 1.584 2.832 0 .12.024.216.024.336 0 1.056-.408 2.304-.984 3.264-.576.984-1.344 1.104-2.304 1.632-.264.144-.504.168-.792.24-.432.096-.984.192-1.416.192-.168 0-.432.24-.576.408-.096.096-.12.384-.12.672 0 .36.048.768.048.912 0 .264.024.624.024 1.008 0 1.008-.144 2.232-1.056 2.592a1.331 1.331 0 0 1-.408.072.977.977 0 0 1-.576-.192c-.216-.144-.432-.312-.576-.528-.264-.432-.336-.768-.384-1.272v-.288c0-.456.024-1.152.024-1.488v-1.824c0-.648.144-1.344.168-2.016.024-.312.024-.648.024-.96 0-.648-.024-1.272-.024-1.92 0-.36.024-.792.048-1.176v-.264c0-.504-.048-.912-.048-1.416V4.8c.048-.504.168-.936.696-1.176zm2.424 2.736c-.192.12-.192.36-.216.552-.024.144-.024.336-.024.528 0 .384.024.84.024 1.152v1.08c0 .168 0 .36.024.504.072.144.384.168.672.168h.312c.264 0 .624-.216.84-.384.216-.144.504-.384.648-.6.36-.48.408-.408.504-1.008 0-.072.024-.144.024-.216 0-.456-.192-1.128-.432-1.392-.36-.36-.888-.6-1.344-.6-.264 0-.768.048-1.032.216zm9.11-3.168c.144-.024.288-.048.456-.048.264 0 .528.072.72.24.216.192.312.528.432.792.144.288.312.552.456.816.504.744.768 1.92 1.2 2.712.216.432.432.84.624 1.272.048.144.144.384.312.408.144 0 .264-.216.336-.336.216-.336.408-.768.6-1.176.432-.888.96-2.28 1.488-3.168.24-.384.384-.912.744-1.224.264-.288.576-.408.912-.408.24 0 .48.072.672.192.216.096.432.216.576.432.144.216.192.432.192.648 0 .504-.312.984-.528 1.368-.312.552-.552 1.416-.792 1.992-.408 1.008-.96 1.872-1.464 2.832-.216.432-.48.888-.6 1.368-.048.24-.408 1.296-.432 1.512-.12.696-.12.72-.12.96v.336c0 .528-.072 1.056-.072 1.584v.24c0 .648-.048 1.464-1.008 1.584-.096.024-.216.024-.312.024-1.104 0-1.68-1.056-1.728-1.752-.024-.672-.048-.864-.072-1.512 0-.144.024-.312.024-.456 0-.096 0-.192-.048-.288-.024-.048-.024-.12-.024-.216v-.312c0-.12 0-.216-.048-.264-.264-.24-.24-1.104-.432-1.512-.408-.864-.72-1.464-1.128-2.28a10.503 10.503 0 0 0-.576-1.032c-.336-.576-.648-1.488-.984-2.064-.288-.48-.36-.912-.576-1.44a1.359 1.359 0 0 1-.072-.432c0-.408.192-.816.48-1.08.216-.192.552-.24.792-.312z"/></svg>