<svg xmlns="http://www.w3.org/2000/svg" width="113" height="45" fill="none"><g clip-path="url(#a)"><path fill="#fff" stroke="#000" stroke-linejoin="round" stroke-width="2" d="M18.607 18.47c2.043 1.276 3.064 1.915 3.414 2.732a2.836 2.836 0 0 1 0 2.234c-.35.818-1.371 1.456-3.414 2.732l-9.591 5.995c-2.267 1.417-3.4 2.125-4.336 2.05a2.837 2.837 0 0 1-2.05-1.136c-.56-.754-.56-2.09-.56-4.763v-11.99c0-2.673 0-4.01.56-4.762a2.837 2.837 0 0 1 2.05-1.137c.936-.075 2.069.633 4.336 2.05l9.591 5.995z"/></g><mask id="b" width="84" height="29" x="29.849" y="6.319" fill="#000" maskUnits="userSpaceOnUse"><path fill="#fff" d="M29.849 6.319h84v29h-84z"/><path d="M33.305 10.755c.432-.18.936-.216 1.404-.216h.9c.684 0 1.152-.072 1.692-.072.18 0 .36.036.576.036.612.072 1.044.18 1.692.216.612.036 1.188.216 1.764.324.54.072 1.44.54 1.908.792 1.44.792 2.196 2.304 2.376 4.248 0 .18.036.324.036.504 0 1.584-.612 3.456-1.476 4.896-.864 1.476-2.016 1.656-3.456 2.448-.396.216-.756.252-1.188.36-.648.144-1.476.288-2.124.288-.252 0-.648.36-.864.612-.144.144-.18.576-.18 1.008 0 .54.072 1.152.072 1.368 0 .396.036.936.036 1.512 0 1.512-.216 3.348-1.584 3.888a1.997 1.997 0 0 1-.612.108c-.324 0-.612-.108-.864-.288-.324-.216-.648-.468-.864-.792-.396-.648-.504-1.152-.576-1.908v-.432c0-.684.036-1.728.036-2.232v-2.736c0-.972.216-2.016.252-3.024.036-.468.036-.972.036-1.44 0-.972-.036-1.908-.036-2.88 0-.54.036-1.188.072-1.764v-.396c0-.756-.072-1.368-.072-2.124v-.54c.072-.756.252-1.404 1.044-1.764zm3.636 4.104c-.288.18-.288.54-.324.828-.036.216-.036.504-.036.792 0 .576.036 1.26.036 1.728v1.62c0 .252 0 .54.036.756.108.216.576.252 1.008.252h.468c.396 0 .936-.324 1.26-.576.324-.216.756-.576.972-.9.54-.72.612-.612.756-1.512 0-.108.036-.216.036-.324 0-.684-.288-1.692-.648-2.088-.54-.54-1.332-.9-2.016-.9-.396 0-1.152.072-1.548.324zm18.616-4.32h.18c.252 0 .504.036.756.108.432.108.972.252 1.296.576.72.756.54 2.232.648 3.204.144 1.512.108 3.024.216 4.536v1.584c0 .972-.108 1.908-.108 2.88 0 .72-.072 1.44-.072 2.16 0 .288 0 .54.036.828.036.36-.036.756.18 1.044.324.576.864.468 1.44.54.864.108 1.728.108 2.628.108.936 0 2.088.324 2.844.972.432.36.612.828.612 1.296a2.13 2.13 0 0 1-1.332 1.944c-.432.18-.9.252-1.368.252-1.008 0-2.052-.324-3.024-.468-.576-.108-1.152-.108-1.728-.108h-.972c-.432 0-.828.036-1.26.036-.468 0-1.296-.252-1.692-.504-.288-.216-.504-.36-.648-.72-.18-.432-.252-1.044-.288-1.512-.036-.432-.036-1.008-.036-1.44v-.684c0-.972-.036-1.836-.072-2.844 0-.828.036-1.656.036-2.484 0-.432.036-.864.036-1.296 0-.432-.036-.9-.036-1.332-.036-.396-.036-.792-.036-1.224v-1.26c0-.36 0-.756-.036-1.116-.072-.684-.036-1.368-.144-2.052-.036-.216-.036-.432-.036-.648v-.684c.036-.648 1.26-1.584 1.98-1.692zm26.566.036c.18-.036.36-.036.54-.036.72 0 1.296.252 1.764.936.288.468.36.972.576 1.476.18.396.396.756.576 1.188.108.288.108.648.216.936.612 2.052 1.188 4.14 1.764 6.156.288.828.756 1.62 1.044 2.412.504 1.512.972 2.988 1.584 4.464.252.576.468 1.368.468 2.16 0 1.008-.396 1.98-1.548 2.232-.144.036-.252.036-.396.036-.18 0-.324 0-.504-.036-.324-.036-.72-.072-1.008-.252-.828-.54-1.044-1.512-1.368-2.34-.144-.576-.36-1.116-.54-1.692-.144-.468-.252-1.044-.576-1.44-.396-.432-1.044-.54-1.692-.54-.396 0-.792.036-1.116.036h-.288a14.046 14.046 0 0 0-1.296-.072c-.792 0-1.548.144-2.016.72-.288.288-.36.684-.468 1.044-.432 1.224-.54 2.7-1.296 3.744-.36.468-.9.972-1.512.972-.108 0-.252-.036-.396-.072-.288-.108-.504-.288-.792-.396-.216-.144-.576-.144-.756-.36-.252-.18-.324-.468-.324-.72 0-.396.18-.792.252-1.116.216-.72.576-1.404.792-2.16.288-.792.468-1.512.864-2.304.324-.684.324-1.512.612-2.268.18-.612.504-1.224.684-1.8.216-.684.18-1.404.396-2.052.252-.9.792-1.764 1.152-2.664.288-.864.468-1.692.864-2.52.288-.612.576-1.26.72-1.908.144-.468.216-.972.612-1.296.576-.432 1.692-.36 2.412-.468zm-.504 6.084h-.036c-.288 0-.504.756-.612 1.044-.468 1.008-.828 2.592-1.116 3.672-.036.18-.144.504-.144.756 0 .18.036.324.216.396.36.144.72.18 1.116.18.324 0 .684-.036 1.008-.036h.216c.18 0 .396.072.576.072.144 0 .216-.036.288-.144.072-.072.072-.216.072-.36 0-.252-.072-.54-.108-.72-.216-1.008-.468-2.88-.864-3.816-.072-.288-.324-.972-.612-1.044zM95.46 9.027a3.17 3.17 0 0 1 .613-.072c.9 0 1.944.396 2.484.972 1.367 1.404 2.196 3.564 3.24 5.184.324.468.612.936.936 1.44.072.144.18.504.396.54h.036c.18 0 .36-.18.432-.324.252-.324.432-.72.684-1.044.828-1.116 1.404-2.556 2.196-3.708.324-.54.576-1.152 1.116-1.512.288-.18.612-.252.936-.252 1.044 0 2.196.72 2.592 1.476.108.216.144.432.144.648 0 .324-.108.684-.252.936-.252.504-.648.9-.972 1.332-.504.612-.864 1.26-1.296 1.908-.648 1.188-1.368 2.34-2.052 3.528-.288.504-.684.936-.828 1.512-.18.72-.324 1.512-.324 2.232v.216c0 .504-.072.972-.072 1.476l-.036 4.176c0 1.404-.18 3.06-1.692 3.456-.144.036-.252.036-.396.036-1.116 0-2.196-1.044-2.34-2.124-.036-.252-.072-.468-.072-.72 0-.54.108-1.08.144-1.584v-2.16c0-.432.036-.864.036-1.296 0-.288 0-.576-.072-.864-.144-.684-.18-1.224-.432-1.836-.36-.756-.54-1.548-.864-2.268-.36-.72-.829-1.368-1.189-2.052-.215-.432-.287-.864-.504-1.224-.54-.972-1.332-1.8-1.8-2.772-.647-1.224-1.691-2.196-1.691-3.6v-.252c.071-.612.215-1.188.9-1.404z"/></mask><path fill="#fff" d="M33.305 10.755c.432-.18.936-.216 1.404-.216h.9c.684 0 1.152-.072 1.692-.072.18 0 .36.036.576.036.612.072 1.044.18 1.692.216.612.036 1.188.216 1.764.324.54.072 1.44.54 1.908.792 1.44.792 2.196 2.304 2.376 4.248 0 .18.036.324.036.504 0 1.584-.612 3.456-1.476 4.896-.864 1.476-2.016 1.656-3.456 2.448-.396.216-.756.252-1.188.36-.648.144-1.476.288-2.124.288-.252 0-.648.36-.864.612-.144.144-.18.576-.18 1.008 0 .54.072 1.152.072 1.368 0 .396.036.936.036 1.512 0 1.512-.216 3.348-1.584 3.888a1.997 1.997 0 0 1-.612.108c-.324 0-.612-.108-.864-.288-.324-.216-.648-.468-.864-.792-.396-.648-.504-1.152-.576-1.908v-.432c0-.684.036-1.728.036-2.232v-2.736c0-.972.216-2.016.252-3.024.036-.468.036-.972.036-1.44 0-.972-.036-1.908-.036-2.88 0-.54.036-1.188.072-1.764v-.396c0-.756-.072-1.368-.072-2.124v-.54c.072-.756.252-1.404 1.044-1.764zm3.636 4.104c-.288.18-.288.54-.324.828-.036.216-.036.504-.036.792 0 .576.036 1.26.036 1.728v1.62c0 .252 0 .54.036.756.108.216.576.252 1.008.252h.468c.396 0 .936-.324 1.26-.576.324-.216.756-.576.972-.9.54-.72.612-.612.756-1.512 0-.108.036-.216.036-.324 0-.684-.288-1.692-.648-2.088-.54-.54-1.332-.9-2.016-.9-.396 0-1.152.072-1.548.324zm18.616-4.32h.18c.252 0 .504.036.756.108.432.108.972.252 1.296.576.72.756.54 2.232.648 3.204.144 1.512.108 3.024.216 4.536v1.584c0 .972-.108 1.908-.108 2.88 0 .72-.072 1.44-.072 2.16 0 .288 0 .54.036.828.036.36-.036.756.18 1.044.324.576.864.468 1.44.54.864.108 1.728.108 2.628.108.936 0 2.088.324 2.844.972.432.36.612.828.612 1.296a2.13 2.13 0 0 1-1.332 1.944c-.432.18-.9.252-1.368.252-1.008 0-2.052-.324-3.024-.468-.576-.108-1.152-.108-1.728-.108h-.972c-.432 0-.828.036-1.26.036-.468 0-1.296-.252-1.692-.504-.288-.216-.504-.36-.648-.72-.18-.432-.252-1.044-.288-1.512-.036-.432-.036-1.008-.036-1.44v-.684c0-.972-.036-1.836-.072-2.844 0-.828.036-1.656.036-2.484 0-.432.036-.864.036-1.296 0-.432-.036-.9-.036-1.332-.036-.396-.036-.792-.036-1.224v-1.26c0-.36 0-.756-.036-1.116-.072-.684-.036-1.368-.144-2.052-.036-.216-.036-.432-.036-.648v-.684c.036-.648 1.26-1.584 1.98-1.692zm26.566.036c.18-.036.36-.036.54-.036.72 0 1.296.252 1.764.936.288.468.36.972.576 1.476.18.396.396.756.576 1.188.108.288.108.648.216.936.612 2.052 1.188 4.14 1.764 6.156.288.828.756 1.62 1.044 2.412.504 1.512.972 2.988 1.584 4.464.252.576.468 1.368.468 2.16 0 1.008-.396 1.98-1.548 2.232-.144.036-.252.036-.396.036-.18 0-.324 0-.504-.036-.324-.036-.72-.072-1.008-.252-.828-.54-1.044-1.512-1.368-2.34-.144-.576-.36-1.116-.54-1.692-.144-.468-.252-1.044-.576-1.44-.396-.432-1.044-.54-1.692-.54-.396 0-.792.036-1.116.036h-.288a14.046 14.046 0 0 0-1.296-.072c-.792 0-1.548.144-2.016.72-.288.288-.36.684-.468 1.044-.432 1.224-.54 2.7-1.296 3.744-.36.468-.9.972-1.512.972-.108 0-.252-.036-.396-.072-.288-.108-.504-.288-.792-.396-.216-.144-.576-.144-.756-.36-.252-.18-.324-.468-.324-.72 0-.396.18-.792.252-1.116.216-.72.576-1.404.792-2.16.288-.792.468-1.512.864-2.304.324-.684.324-1.512.612-2.268.18-.612.504-1.224.684-1.8.216-.684.18-1.404.396-2.052.252-.9.792-1.764 1.152-2.664.288-.864.468-1.692.864-2.52.288-.612.576-1.26.72-1.908.144-.468.216-.972.612-1.296.576-.432 1.692-.36 2.412-.468zm-.504 6.084h-.036c-.288 0-.504.756-.612 1.044-.468 1.008-.828 2.592-1.116 3.672-.036.18-.144.504-.144.756 0 .18.036.324.216.396.36.144.72.18 1.116.18.324 0 .684-.036 1.008-.036h.216c.18 0 .396.072.576.072.144 0 .216-.036.288-.144.072-.072.072-.216.072-.36 0-.252-.072-.54-.108-.72-.216-1.008-.468-2.88-.864-3.816-.072-.288-.324-.972-.612-1.044zM95.46 9.027a3.17 3.17 0 0 1 .613-.072c.9 0 1.944.396 2.484.972 1.367 1.404 2.196 3.564 3.24 5.184.324.468.612.936.936 1.44.072.144.18.504.396.54h.036c.18 0 .36-.18.432-.324.252-.324.432-.72.684-1.044.828-1.116 1.404-2.556 2.196-3.708.324-.54.576-1.152 1.116-1.512.288-.18.612-.252.936-.252 1.044 0 2.196.72 2.592 1.476.108.216.144.432.144.648 0 .324-.108.684-.252.936-.252.504-.648.9-.972 1.332-.504.612-.864 1.26-1.296 1.908-.648 1.188-1.368 2.34-2.052 3.528-.288.504-.684.936-.828 1.512-.18.72-.324 1.512-.324 2.232v.216c0 .504-.072.972-.072 1.476l-.036 4.176c0 1.404-.18 3.06-1.692 3.456-.144.036-.252.036-.396.036-1.116 0-2.196-1.044-2.34-2.124-.036-.252-.072-.468-.072-.72 0-.54.108-1.08.144-1.584v-2.16c0-.432.036-.864.036-1.296 0-.288 0-.576-.072-.864-.144-.684-.18-1.224-.432-1.836-.36-.756-.54-1.548-.864-2.268-.36-.72-.829-1.368-1.189-2.052-.215-.432-.287-.864-.504-1.224-.54-.972-1.332-1.8-1.8-2.772-.647-1.224-1.691-2.196-1.691-3.6v-.252c.071-.612.215-1.188.9-1.404z"/><path fill="#000" d="m33.305 10.755-.77-1.846-.028.012-.03.014.828 1.82zm4.572-.252.234-1.986-.117-.014h-.117v2zm1.692.216.118-1.996h-.007l-.11 1.996zm1.764.324-.368 1.966.051.01.053.007.264-1.983zm1.908.792.964-1.752-.008-.004-.008-.005-.948 1.761zm2.376 4.248h2v-.092l-.008-.092-1.992.184zm-1.44 5.4-1.715-1.029-.005.01-.006.009 1.726 1.01zm-3.456 2.448.958 1.756.006-.003-.964-1.753zm-1.188.36.434 1.953.026-.006.025-.006-.485-1.94zm-2.988.9 1.414 1.415.055-.055.05-.058-1.519-1.302zm-1.656 7.776.633 1.898.051-.017.05-.02-.734-1.86zm-1.476-.18 1.163-1.627-.027-.019-.026-.018-1.11 1.664zm-.864-.792-1.706 1.043.02.034.022.033 1.664-1.11zm-.576-1.908h-2v.095l.01.095 1.99-.19zm.288-8.424-1.994-.153-.003.04-.002.042 2 .071zm.072-6.084 1.996.125.004-.062v-.063h-2zm-.072-3.06-1.99-.19-.01.095v.095h2zm4.68 2.34 1.06 1.696.007-.004.007-.004-1.074-1.688zm-.324.828 1.973.33.007-.041.005-.04-1.985-.249zm.036 4.896-1.973.33.05.296.134.269 1.79-.895zm2.736-.324-1.11-1.664-.06.04-.058.046 1.228 1.578zm.972-.9-1.6-1.2-.033.045-.031.046 1.664 1.11zm.756-1.512 1.975.316.025-.157v-.159h-2zm-.612-2.412 1.48-1.345-.032-.035-.034-.034-1.414 1.414zm-6.43-2.834c.05-.02.22-.062.634-.062v-4c-.523 0-1.359.031-2.173.37l1.538 3.692zm.634-.062h.901v-4h-.901v4zm.9 0c.413 0 .757-.022 1.033-.04.288-.02.469-.032.66-.032v-4c-.35 0-.674.024-.926.04-.264.018-.496.032-.767.032v4zm1.692-.072c-.024 0-.036-.002.085.01.094.008.278.026.491.026v-4h-.021a3.464 3.464 0 0 1-.09-.009c-.068-.006-.26-.027-.465-.027v4zm.342.023c.261.03.456.065.765.112.294.045.635.091 1.05.114l.222-3.994a6.683 6.683 0 0 1-.669-.074c-.222-.034-.549-.09-.9-.131l-.468 3.973zm1.809.226c.154.009.334.038.592.094.197.042.607.14.92.2l.738-3.932c-.263-.05-.428-.095-.816-.179a7.847 7.847 0 0 0-1.2-.176l-.234 3.993zm1.617.31c-.052-.007-.035-.01.07.026.095.033.215.081.356.145.284.127.575.28.798.4l1.896-3.523a16.68 16.68 0 0 0-1.056-.527c-.365-.163-.954-.409-1.536-.486l-.528 3.965zm1.208.562c.659.362 1.205 1.13 1.349 2.68l3.983-.37c-.217-2.338-1.182-4.593-3.404-5.815l-1.928 3.505zm1.34 2.495c0 .217.023.402.03.473.01.091.006.068.006.031h4c0-.216-.022-.402-.03-.473-.01-.09-.006-.067-.006-.03h-4zm.036.504c0 1.146-.47 2.666-1.19 3.867l3.43 2.058c1.006-1.678 1.76-3.902 1.76-5.925h-4zm-1.202 3.886c-.221.378-.441.562-.777.754-.205.116-.435.225-.773.383-.319.149-.718.335-1.144.569l1.928 3.505c.294-.162.58-.296.908-.45.31-.144.692-.321 1.063-.533.817-.466 1.604-1.11 2.247-2.207l-3.452-2.021zm-2.688 1.703c-.005.002-.023.014-.118.038a5.11 5.11 0 0 1-.226.052c-.096.02-.229.05-.371.085l.97 3.88c.13-.032.966-.165 1.66-.544l-1.915-3.512zm-.664.163c-.615.137-1.268.24-1.69.24v4c.875 0 1.877-.184 2.558-.335l-.868-3.905zm-1.69.24a2.49 2.49 0 0 0-1.1.269 3.44 3.44 0 0 0-.567.36c-.286.22-.536.473-.715.682l3.037 2.603c.036-.043.092-.096.121-.119.014-.01-.019.018-.098.057-.042.02-.116.054-.218.084-.1.03-.258.064-.46.064v-4zm-2.278 1.198a2.406 2.406 0 0 0-.563.911c-.079.227-.12.44-.145.603a6.261 6.261 0 0 0-.058.908h4c0-.178.009-.28.014-.315.003-.018-.003.034-.035.125a1.443 1.443 0 0 1-.102.224 1.699 1.699 0 0 1-.283.372l-2.828-2.828zm-.766 2.422c0 .347.023.696.041.95l.025.33c.007.102.006.114.006.088h4c0-.134-.01-.279-.016-.369l-.025-.338a9.508 9.508 0 0 1-.03-.66h-4zm.072 1.368c0 .242.011.52.02.759.008.255.016.504.016.753h4c0-.326-.01-.636-.02-.893-.009-.275-.016-.465-.016-.619h-4zm.036 1.512c0 .698-.055 1.29-.187 1.709-.126.403-.223.355-.131.319l1.468 3.72c1.46-.575 2.156-1.811 2.479-2.84.318-1.011.371-2.094.371-2.908h-4zm-.216 1.991a.28.28 0 0 1-.03.008l.008-.001.042-.002v4c.425 0 .855-.08 1.245-.21l-1.265-3.795zm.02.005a.585.585 0 0 1 .299.085l-2.325 3.255c.541.387 1.229.66 2.026.66v-4zm.245.048a2.52 2.52 0 0 1-.261-.194c-.056-.048-.061-.063-.048-.043l-3.328 2.219c.444.666 1.044 1.097 1.419 1.346l2.218-3.328zm-.266-.17c-.18-.294-.236-.466-.292-1.055l-3.982.379c.088.922.248 1.758.86 2.761l3.414-2.086zm-.283-.866v-.432h-4v.432h4zm0-.432c0-.316.008-.725.018-1.14.008-.395.018-.812.018-1.092h-4c0 .224-.008.582-.017 1.005-.01.405-.019.86-.019 1.227h4zm.036-2.232v-2.736h-4v2.736h4zm0-2.736c0-.356.04-.754.1-1.27.054-.478.13-1.081.15-1.682l-3.997-.143c-.014.407-.065.83-.127 1.368-.058.501-.126 1.112-.126 1.727h4zm.246-2.87c.043-.558.042-1.141.042-1.594h-4c0 .484 0 .91-.03 1.287l3.988.307zm.042-1.594c0-.508-.01-1.003-.018-1.477-.01-.48-.018-.939-.018-1.403h-4c0 .508.01 1.004.018 1.478.01.48.018.938.018 1.402h4zm-.036-2.88c0-.47.032-1.06.068-1.639l-3.992-.25a31.995 31.995 0 0 0-.076 1.89h4zm.072-1.764v-.395h-4v.396h4zm0-.396c0-.438-.02-.83-.039-1.167a17.667 17.667 0 0 1-.033-.957h-4c0 .438.021.83.039 1.168.018.346.033.638.033.956h4zm-.072-2.124v-.541h-4v.542h4zm-.009-.35a2.35 2.35 0 0 1 .041-.289c.013-.055.018-.055.004-.026a.502.502 0 0 1-.1.13c-.047.046-.079.059-.064.052l-1.656-3.641c-.801.364-1.385.935-1.747 1.649-.327.644-.417 1.3-.46 1.746l3.982.379zm1.63.454a2.595 2.595 0 0 0-1.127 1.544 3.61 3.61 0 0 0-.097.508c-.008.06-.014.115-.017.15l-.008.074 3.969.496.016-.147.01-.08c.004-.039.002-.008-.014.051-.017.063-.06.195-.16.35a1.468 1.468 0 0 1-.453.446l-2.12-3.392zm-1.238 2.195c-.069.416-.063.894-.063 1.121h4c0-.15 0-.26.003-.356.004-.1.01-.126.006-.107l-3.946-.657zm-.063 1.121c0 .323.01.667.019.965.01.314.017.566.017.763h4c0-.27-.01-.594-.019-.883a29.806 29.806 0 0 1-.017-.845h-4zm.036 1.728v1.62h4v-1.62h-4zm0 1.62c0 .196-.006.67.063 1.085l3.946-.657c.003.017-.002-.009-.006-.105a9.74 9.74 0 0 1-.003-.323h-4zm.247 1.65a2.31 2.31 0 0 0 1.019 1.017c.295.15.577.222.77.26.382.074.767.081 1.008.081v-4c-.19 0-.256-.01-.242-.008.008.002.126.023.29.107.16.083.505.3.733.755l-3.578 1.789zm2.797 1.358h.469v-4h-.468v4zm.468 0c.666 0 1.236-.247 1.552-.404.363-.182.69-.402.936-.593l-2.456-3.157a1.806 1.806 0 0 1-.27.172c-.04.02-.051.022-.032.016a1.115 1.115 0 0 1 .27-.034v4zm2.37-.912c.405-.27 1.093-.805 1.526-1.454l-3.328-2.22c.018-.026.02-.025-.006.005a2.816 2.816 0 0 1-.41.342l2.218 3.327zm1.462-1.364c.108-.144.187-.24.282-.357.08-.1.232-.286.367-.515.314-.532.409-1.067.482-1.524l-3.95-.632a2.99 2.99 0 0 1-.055.296s.006-.022.021-.058a.906.906 0 0 1 .057-.114c.032-.054.055-.076-.034.034-.075.094-.208.255-.37.47l3.2 2.4zm1.156-2.712c0 .082-.007.143-.01.167-.002.02-.005.034 0 0a2.66 2.66 0 0 0 .045-.49h-3.999c0-.082.007-.143.01-.168.003-.02.005-.033 0 0a2.635 2.635 0 0 0-.045.49h4zm.036-.324c0-.582-.115-1.203-.274-1.73-.144-.474-.41-1.17-.894-1.703l-2.96 2.69c-.086-.095-.1-.143-.068-.078.024.05.058.134.093.248.034.112.061.23.08.341.018.114.023.194.023.232h4zm-1.234-3.502c-.853-.854-2.134-1.486-3.43-1.486v4c-.002 0 .02 0 .069.012a1.242 1.242 0 0 1 .533.303l2.828-2.829zm-3.43-1.486c-.298 0-.7.026-1.113.097-.362.062-.969.196-1.509.54l2.148 3.375c-.095.06-.147.072-.115.061.024-.007.075-.02.154-.034a2.84 2.84 0 0 1 .435-.039v-4zm17.068-1.996v-2h-.15l-.147.022.297 1.978zm.936.108-.55 1.923.032.01.033.008.485-1.94zm1.296.576 1.448-1.379-.017-.018-.017-.017-1.414 1.414zm.648 3.204 1.99-.19v-.015l-.002-.015-1.988.22zm.216 4.536h2v-.071l-.005-.071-1.995.142zm-.144 7.452 1.99-.199-.003-.024-.003-.025-1.984.248zm.18 1.044 1.743-.98-.064-.115-.08-.105-1.6 1.2zm1.44.54-.248 1.985.248-1.985zm5.472 1.08-1.302 1.519.01.009.011.009 1.28-1.537zm-.72 3.24-.729-1.862-.02.008-.02.008.769 1.846zm-4.392-.216-.369 1.966.038.007.038.006.293-1.979zm-5.652-.576-1.2 1.6.061.046.065.042 1.074-1.688zm-.648-.72 1.857-.742-.006-.014-.005-.013-1.846.77zm-.288-1.512 1.994-.153-.001-.013-1.993.166zm-.108-4.968h-2v.036l.001.036 1.999-.072zm.036-5.112h2v-.09l-.008-.09-1.992.18zm-.072-3.6 1.99-.199-.001-.01-1.99.21zm-.144-2.052 1.975-.312-.001-.008-.001-.008-1.973.328zm-.036-1.332-1.997-.11-.003.055v.055h2zm1.98.308h.18v-4h-.179v4zm.18 0c.059 0 .126.008.206.031l1.1-3.846a4.74 4.74 0 0 0-1.306-.185v4zm.27.049c.105.026.19.048.268.07.078.023.135.042.176.058.042.017.053.024.043.018a.625.625 0 0 1-.12-.097l2.829-2.828c-.436-.436-.936-.677-1.292-.817a7.555 7.555 0 0 0-.933-.285l-.97 3.88zm.334.015c-.127-.133-.039-.161.011.34.022.216.03.45.04.747.01.265.02.623.057.958l3.976-.441a9.283 9.283 0 0 1-.035-.65c-.01-.277-.02-.642-.058-1.012-.066-.668-.248-1.812-1.095-2.701l-2.897 2.759zm.105 2.014c.065.685.09 1.383.113 2.138.022.736.041 1.543.099 2.35l3.99-.284c-.05-.704-.068-1.41-.09-2.185a36.907 36.907 0 0 0-.13-2.398l-3.982.379zm.207 4.346v.397h4v-.397h-4zm0 .396v.828h4v-.827h-4zm0 .828v.36h4v-.359h-4zm0 .36c0 .42-.023.842-.051 1.327-.026.469-.057 1.002-.057 1.553h4c0-.42.023-.84.05-1.327.027-.468.058-1 .058-1.553h-4zm-.108 2.88c0 .302-.015.612-.034.98-.017.352-.038.762-.038 1.18h4c0-.301.015-.611.033-.98.018-.351.039-.761.039-1.18h-4zm-.072 2.16c0 .276-.002.647.051 1.076l3.97-.496a4.56 4.56 0 0 1-.021-.58h-4zm.046 1.027.003.112c.001.07.003.228.015.388.024.321.104.948.552 1.545l3.2-2.4c.114.153.175.302.206.408.029.098.032.16.03.148l-.001-.045-.003-.117a4.443 4.443 0 0 0-.023-.437l-3.98.398zm.427 1.826c.217.385.512.726.894.987.373.256.748.38 1.048.445.282.062.544.08.687.09.185.011.238.013.306.022l.496-3.97a6.084 6.084 0 0 0-.319-.03l-.22-.014c-.13-.009-.132-.013-.097-.006.052.012.195.05.358.162.172.117.278.255.333.353l-3.486 1.96zm2.935 1.544c1.008.126 1.997.123 2.876.123v-4c-.922 0-1.66-.002-2.38-.092l-.496 3.969zm2.876.123c.58 0 1.232.225 1.542.49l2.603-3.036c-1.201-1.03-2.854-1.454-4.145-1.454v4zm1.563.509a.326.326 0 0 1-.076-.11.331.331 0 0 1-.031-.13h4a3.646 3.646 0 0 0-1.332-2.833l-2.56 3.073zm-.107-.24c0-.014.002-.013-.002 0a.18.18 0 0 1-.049.074l-.01.007 1.458 3.725c1.636-.64 2.603-2.237 2.603-3.807h-4zm-.101.097a1.57 1.57 0 0 1-.6.098v4c.668 0 1.409-.102 2.138-.405l-1.538-3.693zm-.6.098c-.305 0-.665-.05-1.142-.143-.409-.08-1.046-.223-1.588-.303l-.586 3.957c.43.063.8.154 1.41.273.538.104 1.204.216 1.907.216v-4zm-2.655-.433c-.788-.148-1.55-.143-2.096-.143v4c.605 0 .996.006 1.36.074l.736-3.931zm-2.096-.143h-.972v4h.971v-4zm-.972 0c-.267 0-.516.011-.717.02-.213.01-.378.016-.543.016v4c.266 0 .515-.01.717-.02.212-.009.377-.016.543-.016v-4zm-1.26.036c.045 0 .034.005-.044-.01a2.578 2.578 0 0 1-.508-.153c-.077-.032-.093-.045-.066-.028l-2.148 3.375c.416.265.917.454 1.318.574.396.12.933.242 1.448.242v-4zm-.492-.104-.057-.043a6.603 6.603 0 0 1-.11-.082c-.029-.023-.02-.018.003.005a.842.842 0 0 1 .173.258l-3.714 1.485c.383.959 1.082 1.41 1.305 1.577l2.4-3.2zm-.002.111-.008-.021a2.639 2.639 0 0 1-.065-.286 6.672 6.672 0 0 1-.067-.59l-3.988.308c.035.458.118 1.366.436 2.128l3.692-1.539zm-.141-.909a17.61 17.61 0 0 1-.03-1.274h-4c0 .406 0 1.074.044 1.606l3.986-.332zm-.03-1.274v-.684h-4v.684h4zm0-.684c0-1.016-.037-1.923-.072-2.915l-3.998.143c.037 1.023.07 1.845.07 2.772h4zm-.071-2.844c0-.388.008-.78.017-1.198.01-.41.019-.846.019-1.286h-4c0 .389-.009.781-.018 1.199-.009.41-.018.846-.018 1.285h4zm.036-2.484c0-.167.007-.341.016-.564.009-.21.02-.467.02-.732h-4c0 .168-.007.342-.017.565-.008.21-.02.467-.02.731h4zm.036-1.296c0-.263-.011-.529-.02-.746a15.16 15.16 0 0 1-.016-.586h-4c0 .263.01.53.02.746.009.233.016.417.016.586h4zm-.044-1.513c-.027-.29-.028-.594-.028-1.043h-4c0 .415-.002.903.044 1.405l3.984-.362zm-.028-1.043v-1.26h-4v1.26h4zm0-1.26c0-.339.002-.837-.046-1.315l-3.98.398c.024.243.026.536.026.917h4zm-.047-1.325c-.028-.26-.034-.515-.05-.896a10.664 10.664 0 0 0-.108-1.259l-3.95.624c.034.217.049.458.062.793.012.304.023.732.068 1.157l3.978-.419zm-.16-2.171a.708.708 0 0 1-.006-.079 6.206 6.206 0 0 1-.003-.24h-4c0 .189-.005.57.063.976l3.946-.657zm-.01-.32v-.684h-4v.684h4zm-.002-.573a1.266 1.266 0 0 1-.098.435.767.767 0 0 1-.041.082l-.016.025s.012-.017.043-.048a1.804 1.804 0 0 1 .413-.304.688.688 0 0 1 .074-.036c.01-.003-.024.01-.096.021l-.593-3.956c-.87.131-1.69.642-2.218 1.075a4.932 4.932 0 0 0-.86.898c-.23.316-.562.87-.602 1.586l3.994.222zm26.549-1.767.296 1.978.049-.007.047-.01-.392-1.96zm2.304.9 1.703-1.048-.025-.041-.028-.04-1.65 1.13zm.576 1.476-1.838.788.008.02.01.02 1.82-.828zm.576 1.188 1.873-.702-.013-.034-.014-.033-1.846.77zm.216.936 1.916-.571-.02-.066-.023-.065-1.873.702zm1.764 6.156-1.923.55.015.054.019.053 1.889-.657zm1.044 2.412 1.897-.632-.008-.026-.01-.025-1.88.683zm1.584 4.464-1.848.766.008.018.008.018 1.832-.802zm-1.08 4.392-.428-1.954-.029.007-.028.007.485 1.94zm-.9 0 .392-1.96-.085-.018-.086-.01-.221 1.988zm-1.008-.252-1.093 1.676.016.01.017.01 1.06-1.696zm-1.368-2.34-1.94.485.03.125.047.12 1.863-.73zm-.54-1.692-1.912.588.003.009 1.909-.597zm-.576-1.44 1.548-1.266-.036-.044-.038-.041-1.474 1.351zm-3.096-.504-.181 1.992.09.008h.09v-2zm-3.312.648 1.414 1.415.073-.073.065-.08-1.552-1.262zm-.468 1.044 1.886.666.016-.045.013-.046-1.915-.575zm-1.296 3.744 1.585 1.22.018-.023.017-.024-1.62-1.173zm-1.908.9-.702 1.873.106.04.11.028.486-1.94zm-.792-.396-1.11 1.664.192.128.216.081.702-1.873zm-.756-.36 1.536-1.28-.164-.198-.21-.15-1.162 1.628zm-.072-1.836-1.916-.574-.02.07-.017.07 1.953.434zm.792-2.16-1.88-.683-.024.066-.02.068 1.924.55zm.864-2.304 1.789.895.01-.02.008-.018-1.807-.857zm.612-2.268 1.869.712.028-.073.021-.074-1.918-.565zm.684-1.8-1.907-.602-.002.006 1.909.596zm.396-2.052 1.897.633.016-.047.013-.046-1.926-.54zm1.152-2.664 1.857.743.022-.055.018-.055-1.897-.633zm.864-2.52 1.804.863.005-.011-1.81-.852zm.72-1.908-1.912-.588-.023.077-.018.078 1.953.433zm.612-1.296-1.2-1.6-.034.026-.033.026 1.267 1.548zm1.908 5.616.485-1.94-.239-.06h-.246v2zm-.648 1.044 1.814.843.032-.07.027-.07-1.873-.703zm-1.116 3.672-1.933-.515-.016.061-.012.062 1.96.392zm.072 1.152-.743 1.857.743-1.857zm3.204.072-1.414-1.414-.14.14-.11.165 1.664 1.11zm-.036-1.08 1.961-.392-.003-.013-.003-.014-1.955.42zm-.864-3.816-1.94.485.037.151.06.144 1.843-.78zm.284-5.166c-.034.006-.048.006-.022.004l.06-.001h.11v-4c-.15 0-.527-.007-.932.074l.784 3.922zm.148.002a.52.52 0 0 1 .1.007c.004.001-.009-.001-.03-.012-.02-.01-.03-.02-.027-.017a.469.469 0 0 1 .07.088l3.301-2.259c-.39-.571-.893-1.054-1.532-1.379a4.11 4.11 0 0 0-1.882-.428v4zm.06-.015c.018.028.05.089.118.298.05.155.17.557.324.917l3.676-1.575c-.061-.144-.087-.247-.198-.586a5.262 5.262 0 0 0-.513-1.15l-3.406 2.095zm.46 1.255c.113.252.24.495.327.664.096.186.164.326.223.466l3.692-1.539a10.437 10.437 0 0 0-.354-.75c-.111-.217-.182-.352-.248-.496l-3.64 1.655zm.523 1.063c-.02-.052-.023-.079-.019-.056.006.026.012.06.027.15.012.073.033.2.061.331.029.135.074.315.147.51l3.746-1.404c.019.052.023.079.018.056a3.73 3.73 0 0 1-.026-.15c-.013-.073-.033-.2-.061-.332a3.598 3.598 0 0 0-.148-.51l-3.745 1.405zm.172.805c.608 2.038 1.175 4.093 1.758 6.134l3.846-1.1c-.57-1.99-1.154-4.111-1.77-6.177l-3.834 1.143zm1.792 6.241c.184.53.418 1.025.602 1.416.2.426.345.731.451 1.023l3.76-1.367c-.183-.5-.416-.987-.594-1.363a10.75 10.75 0 0 1-.441-1.023l-3.778 1.314zm1.035 2.388c.491 1.472.988 3.038 1.634 4.597l3.695-1.532c-.577-1.392-1.017-2.779-1.534-4.33l-3.795 1.265zm1.65 4.633c.166.38.3.898.3 1.358h4c0-1.123-.298-2.189-.636-2.961l-3.665 1.603zm.3 1.358c0 .125-.013.22-.028.285-.015.066-.03.086-.024.077a.265.265 0 0 1 .069-.07c.038-.027.051-.023.007-.014l.855 3.908c1.111-.243 1.962-.88 2.489-1.749.49-.809.632-1.698.632-2.437h-4zm-.033.292a.842.842 0 0 1 .144-.023h.013-.068v4c.141 0 .473.006.88-.096l-.97-3.88zm.089-.024h-.102l-.04-.001h.009a.27.27 0 0 1 .021.004l-.784 3.923c.397.08.725.074.896.074v-4zm-.283-.023-.122-.014a5.716 5.716 0 0 1-.215-.03c-.022-.005-.017-.005.008.004a.83.83 0 0 1 .16.08l-2.12 3.391c.76.475 1.688.526 1.847.544l.442-3.975zm-.137.06a.16.16 0 0 1-.038-.039 1.141 1.141 0 0 1-.123-.21 5.27 5.27 0 0 1-.186-.462c-.061-.167-.159-.448-.25-.683l-3.726 1.458c.074.189.322.928.553 1.412.288.602.754 1.332 1.585 1.875l2.185-3.35zm-.52-1.15c-.156-.626-.46-1.446-.571-1.803l-3.818 1.193c.248.795.377 1.054.508 1.58l3.881-.97zm-.569-1.795c-.006-.02-.158-.565-.238-.801-.117-.344-.318-.848-.701-1.317l-3.096 2.533c-.06-.073-.045-.091.01.069.024.073.05.159.083.28.03.103.074.265.12.413l3.822-1.177zm-1.013-2.203c-1.011-1.103-2.445-1.189-3.166-1.189v4c.108 0 .197.005.27.013a.874.874 0 0 1 .136.023c.043.012-.065-.01-.189-.144l2.95-2.703zm-3.166-1.189c-.252 0-.495.012-.68.02a9.94 9.94 0 0 1-.436.016v4c.22 0 .454-.012.626-.02.192-.01.346-.016.49-.016v-4zm-1.116.036h-.288v4h.287v-4zm-.107.008c-.402-.036-.912-.08-1.477-.08v4c.37 0 .725.029 1.115.064l.362-3.984zm-1.477-.08c-.914 0-2.496.14-3.568 1.46l3.104 2.521a.347.347 0 0 1-.08.073c-.021.013-.023.01.01 0 .078-.025.241-.054.534-.054v-4zm-3.43 1.306a3.34 3.34 0 0 0-.76 1.207c-.097.259-.202.651-.21.677l3.831 1.149c.02-.063.036-.122.05-.17.015-.054.024-.09.036-.128.021-.075.032-.108.038-.123.01-.027-.028.088-.157.216l-2.828-2.828zm-.94 1.793c-.248.7-.446 1.616-.572 2.085-.162.6-.303.937-.458 1.151l3.24 2.346c.6-.83.891-1.753 1.08-2.458.225-.835.297-1.27.482-1.793l-3.772-1.331zm-.995 3.19c-.05.064-.1.122-.146.169a.81.81 0 0 1-.099.088c-.018.014-.003 0 .046-.02a.77.77 0 0 1 .272-.046v4c.864 0 1.555-.354 2.018-.687a5.28 5.28 0 0 0 1.08-1.065l-3.171-2.44zm.073.191a1.421 1.421 0 0 1 .165.01l.043.007-.034-.008-.085-.02-.97 3.88c.048.012.47.131.88.131v-4zm.306.056c.03.01.038.02-.106-.062-.108-.062-.369-.215-.686-.334l-1.404 3.745c-.03-.011-.038-.02.105.062.109.062.37.215.687.334l1.404-3.745zm-.385-.188a2.642 2.642 0 0 0-.627-.308 4.833 4.833 0 0 0-.175-.058l-.085-.026c-.015-.005-.01-.004.007.003a1.48 1.48 0 0 1 .551.413l-3.073 2.56c.259.311.549.502.774.62.216.113.414.179.513.21l.125.04c.03.009.035.01.031.01-.004-.002-.032-.012-.073-.03a1.368 1.368 0 0 1-.187-.106l2.22-3.328zm-.703-.323c.23.164.37.38.443.563a.947.947 0 0 1 .07.344h-4c0 .566.163 1.634 1.162 2.348l2.325-3.255zm.514.907c0 .086-.017.103.022-.035.02-.074.037-.124.074-.244a5.32 5.32 0 0 0 .108-.403l-3.905-.868a3.566 3.566 0 0 1-.031.108c-.017.058-.06.193-.092.308-.069.24-.176.653-.176 1.134h4zm.167-.541c.076-.253.18-.511.334-.89.142-.348.325-.801.466-1.295l-3.846-1.1a9 9 0 0 1-.327.893c-.134.332-.318.775-.458 1.243l3.831 1.149zm.756-2.051c.373-1.024.443-1.433.774-2.093l-3.578-1.79c-.462.925-.751 1.956-.955 2.516l3.76 1.367zm.792-2.132c.282-.595.401-1.204.474-1.575.088-.445.13-.652.2-.837l-3.738-1.424c-.218.571-.32 1.156-.386 1.485-.08.404-.123.55-.165.64l3.615 1.711zm.724-2.56c.054-.185.138-.395.268-.706.114-.272.282-.665.406-1.061l-3.818-1.193c-.056.18-.14.38-.279.712-.121.291-.29.694-.415 1.12l3.837 1.129zm.672-1.761c.17-.54.233-1.069.274-1.385.05-.378.075-.527.112-.637l-3.795-1.265c-.179.537-.243 1.072-.284 1.387-.049.378-.076.55-.121.695l3.814 1.205zm.415-2.115c.076-.27.207-.579.413-1.007.182-.38.457-.922.67-1.454l-3.714-1.485c-.147.368-.322.707-.563 1.21-.218.453-.482 1.028-.658 1.657l3.852 1.079zm1.123-2.571c.376-1.128.443-1.604.771-2.29l-3.609-1.726c-.464.97-.757 2.15-.957 2.75l3.795 1.266zm.776-2.301c.287-.61.666-1.438.863-2.326l-3.905-.867c-.09.407-.288.875-.577 1.49l3.62 1.703zm.822-2.171c.026-.084.048-.162.067-.228l.026-.094.022-.08c.03-.105.045-.152.055-.178.008-.023 0 .004-.032.054a.833.833 0 0 1-.17.19l-2.534-3.097a3.347 3.347 0 0 0-1.003 1.432c-.108.282-.253.822-.254.824l3.823 1.177zm-.1-.285c-.117.088-.19.1-.136.085a2.1 2.1 0 0 1 .312-.053c.17-.019.344-.03.578-.047.207-.014.487-.034.755-.075l-.593-3.956c-.091.014-.22.025-.444.041-.196.014-.47.032-.742.062-.464.052-1.373.176-2.13.743l2.4 3.2zm.709 2.016h-.036v4h.036v-4zm-.036 0c-.982 0-1.56.628-1.742.847-.227.274-.37.561-.449.732a6.48 6.48 0 0 0-.203.506c-.068.189-.065.189-.09.257l3.745 1.405a8.636 8.636 0 0 0 .11-.312c.033-.093.057-.15.072-.185.025-.054-.003.026-.105.149a1.59 1.59 0 0 1-.376.326 1.806 1.806 0 0 1-.962.275v-4zm-2.426 2.202c-.565 1.217-.99 3.078-1.235 3.999l3.865 1.03c.33-1.239.627-2.545.998-3.344l-3.628-1.685zm-1.263 4.122c.002-.014.002-.01-.015.057-.013.05-.036.14-.057.232a3.81 3.81 0 0 0-.111.86h4a.9.9 0 0 1-.007.108l.003-.015.01-.044.038-.153c.013-.052.04-.156.061-.26l-3.922-.785zm-.183 1.148c0 .18.01.616.228 1.085.262.56.717.957 1.245 1.168l1.486-3.714a1.714 1.714 0 0 1 .894.854c.156.334.147.607.147.607h-4zm1.473 2.253c.696.279 1.345.323 1.859.323v-4c-.278 0-.35-.027-.373-.037l-1.486 3.714zm1.859.323c.224 0 .449-.012.609-.02.182-.01.299-.016.399-.016v-4c-.224 0-.45.013-.61.021a7.44 7.44 0 0 1-.398.015v4zm1.008-.036h.216v-4h-.215v4zm.216 0a.864.864 0 0 1-.136-.008l.012.002.054.01c.042.008.132.024.229.038.098.014.245.03.417.03v-4c.082 0 .134.008.136.008l-.012-.002-.054-.01c-.042-.007-.133-.024-.23-.037a3.013 3.013 0 0 0-.416-.03v4zm.576.072a2.37 2.37 0 0 0 1.065-.242c.463-.232.737-.567.887-.792l-3.328-2.22a1.7 1.7 0 0 1 .652-.566c.35-.175.65-.18.724-.18v4zm1.702-.73a2.25 2.25 0 0 0 .629-1.284c.033-.231.029-.455.029-.49h-4c0 .11-.004.03.01-.076.01-.065.034-.197.097-.359.065-.166.186-.398.407-.619l2.828 2.829zm.658-1.774c0-.51-.142-1.088-.147-1.112l-3.922.785.036.171a4.77 4.77 0 0 1 .033.186c.002.011 0 0 0-.03h4zM85.05 21.1c-.11-.512-.192-1.061-.357-1.9-.137-.698-.331-1.592-.62-2.276l-3.684 1.559c.107.252.237.762.379 1.486.114.583.265 1.474.371 1.97l3.911-.839zm-.879-3.882a5.227 5.227 0 0 0-.376-1.012c-.09-.181-.23-.43-.43-.67a2.41 2.41 0 0 0-1.261-.817l-.97 3.88a1.7 1.7 0 0 1-.615-.29 1.388 1.388 0 0 1-.233-.22c-.069-.083-.087-.13-.069-.094a1.004 1.004 0 0 1 .073.194l3.881-.97zm11.29-8.19-.393-1.962-.106.021-.104.033.602 1.907zm3.096.9-1.46 1.367.014.014.013.014 1.433-1.396zm3.24 5.183-1.682 1.084.018.028.019.027 1.645-1.139zm.936 1.44 1.788-.894-.048-.097-.058-.09-1.682 1.081zm.396.54-.329 1.973.163.027h.166v-2zm.468-.324-1.579-1.227-.122.156-.088.177 1.789.894zm.684-1.044 1.578 1.228.014-.018.014-.018-1.606-1.192zm2.196-3.708 1.648 1.133.035-.05.032-.054-1.715-1.029zm1.116-1.512-1.06-1.696-.025.016-.025.016 1.11 1.664zm3.528 1.224 1.788-.894-.008-.017-.009-.017-1.771.928zm-.108 1.584-1.737-.992-.028.048-.024.05 1.789.894zm-.972 1.332 1.543 1.272.029-.035.028-.037-1.6-1.2zm-1.296 1.908-1.665-1.11-.049.075-.042.078 1.756.957zm-2.052 3.528-1.734-.998-.003.006 1.737.992zm-.828 1.512-1.941-.485 1.941.485zm-.396 3.924 1.999.018.001-.009v-.009h-2zm-.036 4.176-2-.017v.017h2zm-1.692 3.456.485 1.94.01-.002.011-.003-.506-1.935zm-2.736-2.088 1.982-.264-.001-.01-.002-.009-1.979.283zm.072-2.304 1.994.143.006-.071v-.072h-2zm-.036-4.32-1.958.412.008.037.01.036 1.94-.485zm-.432-1.836 1.849-.761-.021-.05-.023-.049-1.805.86zm-.864-2.268 1.823-.82-.016-.038-.019-.036-1.788.894zm-1.189-2.052-1.788.895.009.018.01.019 1.77-.932zm-.504-1.224-1.748.972.016.029.018.028 1.715-1.029zm-1.8-2.772 1.803-.867-.017-.035-.018-.033-1.767.935zm-1.691-3.852-1.987-.233-.013.116v.117h2zm1.292.558c.066-.014.117-.023.159-.028l.06-.006v-4a5.14 5.14 0 0 0-1.004.111l.785 3.923zm.22-.034a1.913 1.913 0 0 1 .93.27c.071.046.098.074.094.07l2.919-2.736c-.992-1.058-2.609-1.604-3.944-1.604v4zm1.051.368c.488.5.931 1.194 1.425 2.084.443.801.998 1.905 1.566 2.788l3.363-2.167c-.476-.738-.857-1.524-1.43-2.559-.524-.945-1.179-2.034-2.059-2.937l-2.865 2.791zm3.028 4.927c.298.43.547.836.898 1.383l3.365-2.163c-.297-.462-.624-.992-.974-1.497l-3.289 2.277zm.792 1.196c-.015-.03-.037-.08.015.04.03.07.09.205.173.353.078.14.221.372.449.597.235.231.638.531 1.219.628l.657-3.946c.473.08.782.32.933.47.145.143.216.27.232.297.019.035.025.051.008.012l-.014-.031a3.335 3.335 0 0 0-.095-.209l-3.577 1.789zm2.185 1.645h.036v-4h-.036v4zm.036 0a2.41 2.41 0 0 0 1.527-.564c.285-.234.528-.534.693-.865l-3.577-1.79c.093-.187.21-.324.342-.432a1.59 1.59 0 0 1 1.015-.349v4zm2.01-1.096c.213-.274.382-.56.479-.72.119-.2.166-.273.205-.324l-3.157-2.456c-.213.274-.382.56-.478.721-.12.2-.167.273-.206.324l3.157 2.455zm.712-1.08c.512-.69.926-1.452 1.266-2.084.365-.678.651-1.216.972-1.683l-3.297-2.266c-.471.686-.869 1.444-1.197 2.053-.353.654-.641 1.17-.957 1.597l3.213 2.383zm2.305-3.87c.101-.17.199-.348.266-.468.075-.135.128-.226.177-.302.097-.15.117-.141.067-.108l-2.219-3.328c-.59.394-.966.889-1.211 1.27-.122.19-.227.375-.306.517-.089.16-.144.26-.204.36l3.43 2.058zm.461-.846a.401.401 0 0 1-.108.048c-.024.006-.031.004-.016.004v-4a3.74 3.74 0 0 0-1.996.556l2.12 3.392zm-.124.052c.088 0 .291.042.527.18.107.063.192.13.25.186.062.059.064.078.043.038l3.543-1.856c-.421-.804-1.128-1.417-1.813-1.818-.7-.41-1.595-.73-2.55-.73v4zm.803.37a.698.698 0 0 1-.057-.162c-.01-.049-.01-.08-.01-.084h4c0-.45-.078-.987-.356-1.542l-3.577 1.789zm-.067-.246c0-.028.002-.044.002-.046l-.002.006a.021.021 0 0 1-.002.008l-.001.003.002-.005a.497.497 0 0 1 .012-.022l3.473 1.985a4.007 4.007 0 0 0 .516-1.929h-4zm-.041.042c-.036.07-.1.17-.239.346-.076.097-.379.46-.544.68l3.2 2.4c.158-.21.215-.262.481-.597a5.97 5.97 0 0 0 .679-1.04l-3.577-1.79zm-.727.955c-.587.712-1.101 1.596-1.417 2.07l3.329 2.219c.548-.822.754-1.235 1.175-1.746l-3.087-2.543zm-1.508 2.222c-.642 1.176-1.289 2.2-2.03 3.487l3.467 1.996c.627-1.089 1.42-2.368 2.074-3.568l-3.511-1.915zm-2.033 3.493c-.133.233-.154.226-.424.656-.196.311-.46.773-.608 1.363l3.881.97c-.004.015.002-.028.112-.202.06-.095.115-.176.211-.321.085-.128.195-.295.301-.481l-3.473-1.985zm-1.032 2.02c-.197.787-.383 1.76-.383 2.716h4c0-.483.101-1.094.264-1.747l-3.881-.97zm-.383 2.716v.217h4v-.216h-4zm0 .216c0 .167-.012.337-.031.59-.017.233-.041.549-.041.886h4c0-.166.011-.336.03-.59.017-.232.042-.548.042-.886h-4zm-.072 1.46-.036 4.175 3.999.035.036-4.176-3.999-.035zm-.036 4.192c0 .669-.052 1.132-.158 1.419-.044.12-.074.141-.057.124.029-.03.054-.032.016-.021l1.013 3.87c1.541-.404 2.385-1.506 2.785-2.598.363-.991.401-2.058.401-2.794h-4zm-.178 1.516a.925.925 0 0 1 .145-.023h.012-.067v4c.141 0 .472.006.881-.096l-.971-3.88zm.09-.024c.033 0 .03.008-.01-.01a.642.642 0 0 1-.166-.114.775.775 0 0 1-.147-.184c-.034-.06-.036-.09-.035-.08l-3.965.529c.144 1.08.724 2.017 1.429 2.67.706.653 1.719 1.19 2.894 1.19v-4zm-.361-.407c-.044-.31-.051-.36-.051-.437h-4c0 .428.064.81.092 1.003l3.959-.566zm-.051-.437c0-.146.014-.32.044-.57.025-.212.072-.557.094-.871l-3.99-.285c-.013.19-.038.367-.076.685-.033.28-.072.648-.072 1.041h4zm.144-1.584v-1.44h-4v1.44h4zm0-1.44v-.72h-4v.72h4zm0-.72c0-.167.007-.341.016-.564.009-.21.02-.467.02-.732h-4c0 .168-.007.342-.017.565-.008.21-.02.467-.02.731h4.001zm.036-1.296c0-.25.009-.784-.132-1.349l-3.88.97c-.003-.007.002.01.006.072.005.071.005.153.005.307h4.001zm-.115-1.276c-.079-.374-.196-1.35-.54-2.185l-3.699 1.523c.16.388.115.492.324 1.486l3.915-.824zm-.584-2.284a8.87 8.87 0 0 1-.358-.933c-.121-.353-.279-.831-.488-1.295l-3.647 1.641c.115.256.209.534.35.946.128.379.296.866.532 1.361l3.611-1.72zm-.881-2.302a15.562 15.562 0 0 0-.678-1.19c-.219-.359-.386-.628-.529-.9l-3.54 1.864c.218.413.465.81.66 1.127.208.339.373.614.51.888l3.577-1.79zm-1.188-2.052a3.538 3.538 0 0 1-.151-.402c-.069-.197-.2-.578-.427-.957l-3.43 2.058c-.01-.018.003-.004.078.213.059.169.175.52.353.877l3.577-1.79zm-.544-1.301c-.34-.612-.756-1.172-1.052-1.583-.328-.455-.546-.776-.694-1.085L94.45 15.15c.32.663.732 1.242 1.052 1.687.352.488.602.829.802 1.189l3.497-1.943zm-1.78-2.736a12.204 12.204 0 0 0-.64-1.05c-.21-.319-.361-.54-.501-.774-.265-.442-.32-.665-.32-.84h-4c0 1.228.468 2.193.887 2.894.202.337.433.676.6.929a8.6 8.6 0 0 1 .438.712l3.535-1.871zm-1.46-2.665v-.251h-4v.252h4zm-.014-.018c.014-.119.025-.182.034-.215.007-.033.003-.001-.03.064a.912.912 0 0 1-.488.42L94.858 7.12a3.098 3.098 0 0 0-1.846 1.528c-.314.596-.398 1.21-.438 1.55l3.973.467z" mask="url(#b)"/><defs><clipPath id="a"><path fill="#fff" d="M0 8.66h24v27.319H0z"/></clipPath></defs></svg>